<?xml version="1.0" standalone="no"?>
<!DOCTYPE svg PUBLIC "-//W3C//DTD SVG 20010904//EN"
 "http://www.w3.org/TR/2001/REC-SVG-20010904/DTD/svg10.dtd">
<svg version="1.0" xmlns="http://www.w3.org/2000/svg"
 width="438.000000pt" height="181.000000pt" viewBox="0 0 438.000000 181.000000"
 preserveAspectRatio="xMidYMid meet">

<g transform="translate(0.000000,181.000000) scale(0.100000,-0.100000)"
fill="#000000" stroke="none">
<path d="M1972 1690 c-379 -68 -657 -423 -629 -803 24 -329 245 -599 563 -688
112 -32 286 -32 398 0 316 89 539 361 563 688 26 354 -216 693 -562 787 -72
20 -260 29 -333 16z m353 -54 c133 -45 192 -82 296 -186 78 -78 102 -110 137
-180 52 -106 71 -180 79 -295 27 -430 -346 -802 -776 -772 -187 13 -359 93
-482 224 -104 109 -164 222 -193 365 -81 390 172 773 568 864 99 22 273 13
371 -20z"/>
<path d="M1934 1590 c-226 -59 -392 -216 -476 -448 -29 -82 -36 -255 -13 -356
68 -308 342 -526 660 -526 190 0 337 62 476 200 147 146 207 302 196 509 -9
185 -65 310 -197 441 -97 98 -184 149 -306 180 -100 26 -242 26 -340 0z m304
-57 l22 -5 0 -593 0 -593 -22 -6 c-29 -7 -214 -6 -253 3 -27 5 -30 10 -33 48
l-3 43 30 -6 31 -6 0 521 0 521 -26 -10 c-14 -6 -27 -10 -30 -10 -9 0 -3 79 6
85 33 20 206 25 278 8z m-340 -200 l-3 -178 -40 0 -40 0 -5 110 -5 110 -56
-55 c-104 -103 -160 -235 -160 -380 0 -154 51 -279 156 -385 l60 -60 5 200 5
200 40 0 40 0 3 -267 c1 -148 0 -268 -4 -268 -25 0 -141 77 -199 131 -308 292
-241 781 136 989 29 16 57 30 62 30 4 0 6 -80 5 -177z m480 148 c21 -15 34
-62 105 -388 45 -204 85 -374 89 -378 16 -16 48 129 48 219 0 104 -17 175 -61
253 -23 42 -29 65 -29 114 0 62 0 62 21 43 40 -36 100 -140 125 -219 22 -65
26 -100 27 -185 0 -124 -26 -219 -91 -328 -37 -62 -78 -111 -85 -101 -2 2 -30
128 -63 279 l-59 274 -3 -332 -2 -332 -40 -20 -40 -20 0 574 c0 542 1 574 18
570 9 -3 28 -13 40 -23z"/>
<path d="M2090 935 l0 -525 45 0 45 0 0 525 0 525 -45 0 -45 0 0 -525z"/>
</g>
</svg>
